<?xml version="1.0" standalone="no"?>
<!DOCTYPE svg PUBLIC "-//W3C//DTD SVG 20010904//EN"
 "http://www.w3.org/TR/2001/REC-SVG-20010904/DTD/svg10.dtd">
<svg version="1.0" xmlns="http://www.w3.org/2000/svg"
 width="1024.000000pt" height="1024.000000pt" viewBox="0 0 1024.000000 1024.000000"
 preserveAspectRatio="xMidYMid meet">

<g transform="translate(0.000000,1024.000000) scale(0.100000,-0.100000)"
fill="#FBC02D" stroke="none">
<path d="M2664 6879 c-46 -13 -60 -34 -100 -149 -20 -58 -56 -155 -80 -217
l-44 -111 0 -255 0 -254 -31 -7 c-17 -3 -48 -6 -68 -6 -59 0 -78 -26 -86 -113
-4 -41 -5 -115 -4 -165 4 -79 7 -94 28 -116 22 -23 32 -26 93 -26 l68 0 0
-714 0 -713 -70 -7 c-115 -12 -115 -12 -115 -211 l0 -167 28 -24 c23 -20 39
-24 92 -24 l64 0 3 -236 3 -236 33 -29 32 -29 185 0 185 0 32 29 33 29 3 236
3 237 132 -3 132 -3 2 -221 c2 -317 -7 -307 268 -302 l177 3 29 33 29 32 0
230 0 230 130 0 130 0 0 -217 c0 -188 2 -223 18 -253 28 -57 45 -61 250 -58
l184 3 29 33 29 32 0 230 0 230 135 0 135 0 0 -230 0 -230 29 -32 29 -33 196
0 196 0 27 28 28 27 3 235 3 235 130 0 129 0 0 -217 c0 -188 2 -223 18 -253
28 -57 45 -61 254 -58 l188 3 27 28 28 27 3 235 3 235 135 0 134 0 0 -225 c0
-246 6 -276 56 -295 35 -14 354 -13 392 1 54 19 63 44 63 192 -1 72 2 176 6
230 l6 97 128 0 129 0 0 -225 c0 -249 5 -272 58 -294 20 -9 87 -11 216 -9
l188 3 29 33 29 32 0 139 c0 76 3 179 6 229 l7 92 89 0 c86 0 91 1 119 29 l29
29 0 154 0 154 -30 29 c-30 28 -34 29 -119 27 l-89 -2 -6 108 c-4 59 -5 310
-2 557 3 248 6 523 6 613 l0 162 86 0 c147 0 153 9 154 207 0 149 0 152 -26
182 -25 31 -27 31 -118 31 l-93 0 -6 68 c-4 37 -7 156 -7 264 l0 196 -80 213
c-44 116 -88 221 -97 232 -39 43 -114 45 -154 3 -12 -12 -43 -83 -70 -157 -27
-74 -64 -168 -82 -209 l-32 -75 -3 -267 -3 -268 -129 0 -129 0 -3 273 c-2 213
-6 277 -17 297 -8 14 -44 108 -80 210 -60 168 -69 186 -101 208 -26 18 -44 22
-69 18 -59 -9 -76 -29 -116 -133 -20 -54 -58 -150 -84 -213 l-46 -115 -5 -270
-5 -270 -132 -3 -132 -3 -3 273 -3 273 -39 90 c-21 49 -56 141 -78 205 -22 63
-47 123 -55 133 -9 9 -33 22 -53 28 -30 9 -44 8 -73 -6 -39 -18 -48 -34 -96
-167 -18 -48 -51 -131 -74 -185 l-41 -98 -4 -272 -3 -273 -130 0 -129 0 0 258
0 257 -36 100 c-20 55 -54 152 -75 215 -50 143 -77 175 -145 174 -66 -1 -87
-27 -138 -175 -24 -68 -59 -160 -77 -204 l-34 -80 -5 -270 -5 -270 -130 0
-130 0 -5 270 -5 270 -56 145 c-31 80 -64 170 -74 200 -25 75 -41 97 -81 110
-43 14 -85 6 -112 -23 -11 -12 -39 -76 -62 -142 -23 -66 -59 -158 -79 -205
l-36 -85 -3 -272 -3 -273 -129 0 -129 0 -3 283 c-3 280 -4 282 -29 337 -15 30
-48 118 -75 195 -56 163 -73 185 -143 185 -28 0 -55 -7 -68 -18 -20 -16 -63
-100 -63 -124 0 -6 -28 -81 -62 -167 l-63 -156 0 -265 0 -265 -130 0 -130 0
-5 270 -5 270 -51 130 c-28 72 -62 161 -74 199 -35 108 -84 147 -156 125z m61
-1093 c90 -38 63 -166 -35 -166 -32 0 -80 53 -80 87 0 43 34 82 78 92 1 1 18
-5 37 -13z m784 -1 c34 -17 55 -62 45 -99 -9 -37 -60 -68 -98 -61 -39 7 -53
20 -66 61 -14 41 2 82 40 101 32 16 45 16 79 -2z m782 -14 c41 -41 40 -90 -2
-125 -40 -34 -74 -33 -110 3 -59 59 -23 150 59 151 13 0 37 -13 53 -29z m764
19 c51 -19 67 -107 26 -144 -33 -30 -74 -30 -108 -2 -36 31 -45 63 -27 105 19
44 60 60 109 41z m775 -5 c83 -43 57 -159 -37 -159 -26 0 -42 7 -59 28 -33 38
-31 80 5 117 33 33 50 35 91 14z m790 0 c81 -42 57 -155 -33 -158 -82 -2 -120
94 -56 147 35 30 49 32 89 11z m773 4 c52 -26 73 -92 43 -131 -17 -23 -64 -40
-90 -32 -38 11 -66 45 -66 80 0 48 9 65 44 80 38 16 42 17 69 3z m-4177 -1046
l-1 -718 -132 -3 -133 -3 0 721 0 720 134 0 133 0 -1 -717z m762 0 l-3 -718
-127 -3 -128 -3 0 721 0 720 130 0 130 0 -2 -717z m780 0 l-3 -718 -130 0
-130 0 -3 718 -2 717 135 0 135 0 -2 -717z m772 3 l0 -713 -31 -7 c-17 -3 -76
-6 -130 -6 l-99 0 0 720 0 720 130 0 130 0 0 -714z m788 -3 l-3 -718 -130 0
-130 0 -3 718 -2 717 135 0 135 0 -2 -717z m783 545 c2 -328 -3 -1253 -7
-1257 -2 -2 -60 -5 -129 -7 l-125 -3 0 720 0 719 130 0 130 0 1 -172z m-4382
-1369 c46 -16 73 -76 55 -124 -10 -25 -62 -48 -93 -40 -14 4 -36 16 -48 27
-41 38 -23 117 31 138 11 5 21 9 22 9 1 1 15 -4 33 -10z m800 -15 c26 -21 31
-33 31 -68 0 -55 -26 -81 -82 -81 -30 0 -45 6 -59 24 -28 34 -25 92 6 125 31
33 65 33 104 0z m774 -5 c39 -48 34 -110 -13 -134 -43 -22 -68 -19 -101 14
-62 63 -18 160 66 146 17 -3 38 -15 48 -26z m777 4 c42 -39 49 -82 17 -119
-33 -38 -99 -41 -128 -5 -35 42 -21 123 24 141 37 15 55 11 87 -17z m760 12
c100 -52 35 -199 -69 -155 -56 23 -67 95 -22 141 33 33 50 35 91 14z m807 -18
c48 -43 35 -115 -25 -138 -57 -22 -112 17 -112 80 0 32 6 44 31 65 35 29 69
27 106 -7z m758 18 c79 -38 69 -139 -16 -160 -31 -8 -83 15 -93 40 -22 58 14
124 72 134 2 1 19 -6 37 -14z"/>
</g>
</svg>
